<svg width="14" height="16" viewBox="0 0 14 16" fill="none" xmlns="http://www.w3.org/2000/svg">
<path fill-rule="evenodd" clip-rule="evenodd" d="M3.59864 2.65625C3.59864 2.88002 3.50974 3.09464 3.35151 3.25287C3.19328 3.4111 2.97867 3.5 2.75489 3.5C2.53111 3.5 2.3165 3.4111 2.15827 3.25287C2.00003 3.09464 1.91114 2.88002 1.91114 2.65625C1.91114 2.43247 2.00003 2.21786 2.15827 2.05963C2.3165 1.90139 2.53111 1.8125 2.75489 1.8125C2.97867 1.8125 3.19328 1.90139 3.35151 2.05963C3.50974 2.21786 3.59864 2.43247 3.59864 2.65625V2.65625ZM3.59864 5.0435C4.1616 4.84446 4.63608 4.45282 4.9382 3.93778C5.24033 3.42275 5.35066 2.81749 5.24969 2.22897C5.14871 1.64046 4.84294 1.10659 4.38641 0.721722C3.92989 0.336852 3.352 0.125763 2.75489 0.125763C2.15778 0.125763 1.57989 0.336852 1.12336 0.721722C0.666836 1.10659 0.361064 1.64046 0.260092 2.22897C0.159119 2.81749 0.269446 3.42275 0.571574 3.93778C0.873702 4.45282 1.34818 4.84446 1.91114 5.0435V6.03125C1.91114 6.70258 2.17782 7.34641 2.65252 7.82111C3.12723 8.29581 3.77106 8.5625 4.44239 8.5625H6.12989V10.9565C5.56661 11.1555 5.09185 11.5473 4.78951 12.0626C4.48717 12.5778 4.37672 13.1834 4.4777 13.7722C4.57868 14.361 4.88457 14.8952 5.34131 15.2803C5.79805 15.6653 6.37623 15.8766 6.97364 15.8766C7.57105 15.8766 8.14923 15.6653 8.60597 15.2803C9.06271 14.8952 9.3686 14.361 9.46958 13.7722C9.57056 13.1834 9.46011 12.5778 9.15777 12.0626C8.85543 11.5473 8.38067 11.1555 7.81739 10.9565V8.5625H9.50489C10.1762 8.5625 10.8201 8.29581 11.2948 7.82111C11.7695 7.34641 12.0361 6.70258 12.0361 6.03125V5.0435C12.5991 4.84446 13.0736 4.45282 13.3757 3.93778C13.6778 3.42275 13.7882 2.81749 13.6872 2.22897C13.5862 1.64046 13.2804 1.10659 12.8239 0.721722C12.3674 0.336852 11.7895 0.125763 11.1924 0.125763C10.5953 0.125763 10.0174 0.336852 9.56086 0.721722C9.10434 1.10659 8.79857 1.64046 8.69759 2.22897C8.59662 2.81749 8.70695 3.42275 9.00908 3.93778C9.3112 4.45282 9.78568 4.84446 10.3486 5.0435V6.03125C10.3486 6.25502 10.2597 6.46964 10.1015 6.62787C9.94328 6.7861 9.72867 6.875 9.50489 6.875H4.44239C4.21861 6.875 4.004 6.7861 3.84577 6.62787C3.68753 6.46964 3.59864 6.25502 3.59864 6.03125V5.0435ZM7.81739 13.3437C7.81739 13.5675 7.72849 13.7821 7.57026 13.9404C7.41203 14.0986 7.19742 14.1875 6.97364 14.1875C6.74986 14.1875 6.53525 14.0986 6.37702 13.9404C6.21878 13.7821 6.12989 13.5675 6.12989 13.3437C6.12989 13.12 6.21878 12.9054 6.37702 12.7471C6.53525 12.5889 6.74986 12.5 6.97364 12.5C7.19742 12.5 7.41203 12.5889 7.57026 12.7471C7.72849 12.9054 7.81739 13.12 7.81739 13.3437ZM11.1924 3.5C11.4162 3.5 11.6308 3.4111 11.789 3.25287C11.9472 3.09464 12.0361 2.88002 12.0361 2.65625C12.0361 2.43247 11.9472 2.21786 11.789 2.05963C11.6308 1.90139 11.4162 1.8125 11.1924 1.8125C10.9686 1.8125 10.754 1.90139 10.5958 2.05963C10.4375 2.21786 10.3486 2.43247 10.3486 2.65625C10.3486 2.88002 10.4375 3.09464 10.5958 3.25287C10.754 3.4111 10.9686 3.5 11.1924 3.5Z" fill="black"/>
</svg>
