<svg width="19" height="18" viewBox="0 0 19 18" fill="none" xmlns="http://www.w3.org/2000/svg">
<path fill-rule="evenodd" clip-rule="evenodd" d="M2.13378 3.53588L0.765776 2.16788C0.72644 2.12845 0.676282 2.10158 0.621658 2.09069C0.567035 2.07979 0.510407 2.08536 0.458953 2.10669C0.407499 2.12802 0.363537 2.16415 0.332639 2.21049C0.301742 2.25683 0.285301 2.31131 0.285401 2.36701V6.46876C0.285401 6.62401 0.411401 6.75001 0.566651 6.75001H4.6684C4.7241 6.75011 4.77857 6.73367 4.82492 6.70277C4.87126 6.67187 4.90739 6.62791 4.92872 6.57646C4.95005 6.525 4.95562 6.46837 4.94472 6.41375C4.93383 6.35913 4.90696 6.30897 4.86753 6.26963L3.33978 4.74188C4.33566 3.35099 5.78767 2.35326 7.44317 1.9223C9.09866 1.49134 10.8528 1.65443 12.4005 2.38318C13.9482 3.11193 15.1914 4.36023 15.9138 5.91087C16.6362 7.46152 16.7921 9.21636 16.3544 10.8701C15.9167 12.5238 14.913 13.9717 13.5181 14.9619C12.1231 15.9521 10.4252 16.4219 8.71962 16.2895C7.01408 16.1572 5.40892 15.4311 4.18341 14.2375C2.95791 13.044 2.18964 11.4586 2.01228 9.75713C1.9893 9.5344 1.87879 9.32992 1.70505 9.18867C1.53131 9.04742 1.30857 8.98097 1.08584 9.00395C0.863106 9.02692 0.658623 9.13743 0.517373 9.31117C0.376123 9.48492 0.309676 9.70765 0.332651 9.93038C0.549087 12.013 1.48482 13.9551 2.97877 15.4222C4.47271 16.8893 6.43139 17.7896 8.51762 17.9683C10.6038 18.1469 12.6871 17.5926 14.4087 16.4009C16.1303 15.2091 17.3826 13.4544 17.95 11.4389C18.5173 9.42339 18.3642 7.27312 17.5171 5.35828C16.67 3.44344 15.1818 1.88384 13.3087 0.947967C11.4356 0.012096 9.29488 -0.24149 7.25499 0.230864C5.21511 0.703218 3.40372 1.87196 2.13265 3.53588H2.13378ZM9.00415 4.50001C9.22793 4.50001 9.44254 4.5889 9.60077 4.74714C9.75901 4.90537 9.8479 5.11998 9.8479 5.34376V8.70976L12.1294 9.62326C12.3305 9.7109 12.4895 9.87339 12.5728 10.0763C12.6561 10.2792 12.6571 10.5065 12.5756 10.7102C12.4941 10.9138 12.3365 11.0777 12.1363 11.1671C11.936 11.2566 11.7088 11.2645 11.5028 11.1893L8.69028 10.0643C8.53387 10.0016 8.39981 9.8935 8.30537 9.75394C8.21093 9.61439 8.16044 9.44976 8.1604 9.28126V5.34376C8.1604 5.11998 8.2493 4.90537 8.40753 4.74714C8.56576 4.5889 8.78037 4.50001 9.00415 4.50001Z" fill="black"/>
</svg>
