<svg width="14" height="16" viewBox="0 0 14 16" fill="none" xmlns="http://www.w3.org/2000/svg">
<path fill-rule="evenodd" clip-rule="evenodd" d="M11.1762 1.8125C10.9524 1.8125 10.7378 1.90139 10.5796 2.05963C10.4213 2.21786 10.3324 2.43247 10.3324 2.65625C10.3324 2.88003 10.4213 3.09464 10.5796 3.25287C10.7378 3.4111 10.9524 3.5 11.1762 3.5C11.4 3.5 11.6146 3.4111 11.7728 3.25287C11.931 3.09464 12.0199 2.88003 12.0199 2.65625C12.0199 2.43247 11.931 2.21786 11.7728 2.05963C11.6146 1.90139 11.4 1.8125 11.1762 1.8125ZM8.64493 2.65625C8.64507 2.19222 8.77276 1.73716 9.01405 1.3408C9.25533 0.944441 9.60093 0.622033 10.0131 0.408813C10.4252 0.195593 10.888 0.099766 11.3509 0.131804C11.8139 0.163843 12.2591 0.322514 12.6379 0.590478C13.0167 0.858441 13.3146 1.22538 13.499 1.6512C13.6834 2.07703 13.7472 2.54534 13.6834 3.00496C13.6196 3.46458 13.4307 3.89783 13.1373 4.25735C12.844 4.61686 12.4574 4.88882 12.0199 5.0435V5.75C12.0199 6.49592 11.7236 7.21129 11.1962 7.73874C10.6687 8.26618 9.95335 8.5625 9.20743 8.5625H4.70743C4.40906 8.5625 4.12291 8.68102 3.91193 8.892C3.70096 9.10298 3.58243 9.38913 3.58243 9.6875V10.9565C4.1457 11.1555 4.62047 11.5473 4.92281 12.0626C5.22515 12.5778 5.3356 13.1834 5.23462 13.7722C5.13364 14.361 4.82775 14.8952 4.37101 15.2803C3.91427 15.6653 3.33609 15.8766 2.73868 15.8766C2.14127 15.8766 1.56309 15.6653 1.10635 15.2803C0.649612 14.8952 0.343717 14.361 0.24274 13.7722C0.141763 13.1834 0.252206 12.5778 0.554546 12.0626C0.856885 11.5473 1.33165 11.1555 1.89493 10.9565V5.0435C1.33197 4.84446 0.857493 4.45282 0.555365 3.93778C0.253237 3.42275 0.14291 2.81749 0.243883 2.22897C0.344855 1.64046 0.650627 1.10659 1.10715 0.721723C1.56368 0.336853 2.14157 0.125764 2.73868 0.125764C3.33579 0.125764 3.91368 0.336853 4.3702 0.721723C4.82673 1.10659 5.1325 1.64046 5.23348 2.22897C5.33445 2.81749 5.22412 3.42275 4.92199 3.93778C4.61987 4.45282 4.14539 4.84446 3.58243 5.0435V7.109C3.93725 6.95416 4.3203 6.87449 4.70743 6.875H9.20743C9.5058 6.875 9.79195 6.75647 10.0029 6.54549C10.2139 6.33452 10.3324 6.04837 10.3324 5.75V5.0435C9.83879 4.86897 9.41143 4.54567 9.1092 4.11812C8.80698 3.69057 8.64477 3.17983 8.64493 2.65625ZM2.73868 12.5C2.5149 12.5 2.30029 12.5889 2.14206 12.7471C1.98382 12.9054 1.89493 13.12 1.89493 13.3437C1.89493 13.5675 1.98382 13.7821 2.14206 13.9404C2.30029 14.0986 2.5149 14.1875 2.73868 14.1875C2.96246 14.1875 3.17707 14.0986 3.3353 13.9404C3.49353 13.7821 3.58243 13.5675 3.58243 13.3437C3.58243 13.12 3.49353 12.9054 3.3353 12.7471C3.17707 12.5889 2.96246 12.5 2.73868 12.5ZM1.89493 2.65625C1.89493 2.43247 1.98382 2.21786 2.14206 2.05963C2.30029 1.90139 2.5149 1.8125 2.73868 1.8125C2.96246 1.8125 3.17707 1.90139 3.3353 2.05963C3.49353 2.21786 3.58243 2.43247 3.58243 2.65625C3.58243 2.88003 3.49353 3.09464 3.3353 3.25287C3.17707 3.4111 2.96246 3.5 2.73868 3.5C2.5149 3.5 2.30029 3.4111 2.14206 3.25287C1.98382 3.09464 1.89493 2.88003 1.89493 2.65625Z" fill="black"/>
</svg>
