<svg width="19" height="14" viewBox="0 0 19 14" fill="none" xmlns="http://www.w3.org/2000/svg">
<path fill-rule="evenodd" clip-rule="evenodd" d="M2.51837 6.9235C2.98187 6.22487 3.91562 4.95475 5.18012 3.86688C6.45137 2.77225 7.97237 1.9375 9.6295 1.9375C11.2866 1.9375 12.8065 2.77225 14.0789 3.86688C15.3434 4.95475 16.2771 6.22487 16.7406 6.9235C16.7563 6.94595 16.7646 6.97265 16.7646 7C16.7646 7.02735 16.7563 7.05405 16.7406 7.0765C16.2771 7.77513 15.3434 9.04525 14.0789 10.1331C12.8076 11.2277 11.2866 12.0625 9.6295 12.0625C7.97237 12.0625 6.4525 11.2277 5.18012 10.1331C3.9145 9.04525 2.98075 7.77625 2.51837 7.0765C2.50274 7.05405 2.49436 7.02735 2.49436 7C2.49436 6.97265 2.50274 6.94595 2.51837 6.9235ZM9.6295 0.25C7.40087 0.25 5.50075 1.366 4.07987 2.58775C2.65112 3.81512 1.6195 5.22587 1.11325 5.9875C0.913335 6.28691 0.806641 6.63886 0.806641 6.99888C0.806641 7.35889 0.913335 7.71084 1.11325 8.01025C1.6195 8.773 2.65112 10.1838 4.07987 11.4122C5.49962 12.634 7.40087 13.75 9.6295 13.75C11.8581 13.75 13.7582 12.634 15.1791 11.4122C16.6079 10.1849 17.6395 8.77413 18.1457 8.01138C18.3457 7.71196 18.4524 7.36002 18.4524 7C18.4524 6.63998 18.3457 6.28804 18.1457 5.98862C17.6395 5.22587 16.6079 3.81512 15.1791 2.58775C13.7594 1.366 11.8581 0.25 9.6295 0.25ZM9.6295 9.25C10.2262 9.25 10.7985 9.01295 11.2205 8.59099C11.6424 8.16903 11.8795 7.59674 11.8795 7C11.8795 6.40326 11.6424 5.83097 11.2205 5.40901C10.7985 4.98705 10.2262 4.75 9.6295 4.75C9.03276 4.75 8.46046 4.98705 8.03851 5.40901C7.61655 5.83097 7.3795 6.40326 7.3795 7C7.3795 7.59674 7.61655 8.16903 8.03851 8.59099C8.46046 9.01295 9.03276 9.25 9.6295 9.25Z" fill="black"/>
</svg>
